<?xml version="1.0" standalone="no"?><!DOCTYPE svg PUBLIC "-//W3C//DTD SVG 1.1//EN" "http://www.w3.org/Graphics/SVG/1.1/DTD/svg11.dtd"><svg class="icon" width="200px" height="200.00px" viewBox="0 0 1024 1024" version="1.1" xmlns="http://www.w3.org/2000/svg"><path d="M912.384 307.2c-52.736 2.56-96.768 45.056-100.864 97.792-1.024 14.336 0.512 27.648 4.608 39.424 1.536 5.12-1.024 10.752-5.632 12.8l-130.56 53.248c-12.8 5.12-27.136-0.512-32.768-12.8l-86.016-182.272c-2.048-4.608-0.512-10.752 4.096-13.312 33.792-19.456 56.32-56.832 52.736-99.84-4.096-53.248-48.64-96.256-101.888-98.304-60.928-2.56-110.592 46.08-110.592 106.496 0 38.912 21.504 72.704 52.224 91.136 4.608 2.56 6.144 8.192 4.096 13.312L373.76 498.176c-5.632 12.288-20.48 17.92-32.768 12.8l-128-53.248c-5.12-2.048-7.168-7.68-5.632-12.288 3.072-10.24 5.12-20.992 5.12-32.256 0-58.88-47.616-106.496-106.496-106.496S0 354.816 0 413.184s47.616 106.496 106.496 106.496c4.096 0 8.192 0 12.288-0.512 5.12-0.512 10.24 2.56 11.264 7.68l85.504 373.248c2.56 11.776 12.8 19.968 25.088 19.968h540.672c11.776 0 22.528-8.192 25.088-19.968l85.504-373.248c1.024-5.12 6.144-8.704 11.264-7.68 4.608 1.024 9.216 1.536 14.336 1.536 58.88 0 106.496-47.616 106.496-106.496 0-60.928-50.176-109.568-111.616-107.008z" fill="#B6B6B6" /></svg>