<?xml version="1.0" standalone="no"?><!DOCTYPE svg PUBLIC "-//W3C//DTD SVG 1.1//EN" "http://www.w3.org/Graphics/SVG/1.1/DTD/svg11.dtd"><svg class="icon" width="200px" height="200.00px" viewBox="0 0 1024 1024" version="1.1" xmlns="http://www.w3.org/2000/svg"><path d="M914.432 307.2c-52.736 1.536-96.768 43.008-102.4 95.232-1.536 14.848 0 29.184 4.096 42.496 1.536 5.12-1.024 10.752-5.632 12.8l-130.56 53.248c-12.8 5.12-27.136-0.512-32.768-12.8l-85.504-182.272c-2.048-4.608-0.512-10.752 4.096-13.312 31.744-18.432 53.248-53.248 52.736-92.672-0.512-55.296-45.056-101.888-100.352-104.96-61.44-3.584-112.128 45.568-112.128 105.984 0 38.912 20.992 72.704 52.224 91.136 4.608 2.56 6.144 8.192 4.096 13.312L374.784 497.664c-5.632 12.288-19.968 17.92-32.768 12.8L213.504 458.24c-5.12-2.048-7.68-7.68-5.632-12.8 4.608-14.848 6.144-31.232 3.584-48.128-7.168-47.616-46.592-85.504-94.72-89.6C49.664 301.056-5.632 356.864 0.512 423.936c4.608 48.128 43.008 88.064 91.136 94.72 9.216 1.024 18.432 1.536 27.136 0.512 5.12-0.512 10.24 2.56 11.264 7.68l85.504 373.248c2.56 11.776 12.8 19.968 25.088 19.968h541.184c11.776 0 22.528-8.192 25.088-19.968l85.504-373.76c1.024-5.12 6.144-8.192 11.264-7.68 4.608 0.512 9.728 1.024 14.336 1.024 58.88 0 106.496-47.616 106.496-106.496-0.512-59.392-49.664-108.032-110.08-105.984z" fill="#FFA178" /></svg>